<?xml version="1.0" standalone="no"?>
<svg viewBox="80 0 200 200" preserveAspectRatio="none" width="500px" height="750px" xmlns="http://www.w3.org/2000/svg">
  <path fill="#5CE1E6" d="M42.7,-75.5C54.7,-67.1,63.4,-54.3,70.5,-41C77.7,-27.7,83.4,-13.9,83.5,0.1C83.7,14,78.2,28,71,41.3C63.9,54.6,54.9,67.2,42.8,73.5C30.7,79.9,15.3,80,0.3,79.4C-14.7,78.8,-29.3,77.5,-43.2,72.2C-57.2,66.8,-70.4,57.5,-76.5,44.9C-82.7,32.2,-81.9,16.1,-79.2,1.5C-76.6,-13,-72.1,-26.1,-65,-37C-57.8,-48,-47.9,-56.9,-36.6,-65.8C-25.4,-74.6,-12.7,-83.4,1.3,-85.7C15.4,-88,30.7,-83.9,42.7,-75.5Z" transform="translate(100 100)" />
</svg>
